<?xml version="1.0" encoding="UTF-8"?>
<svg id="Layer_1" data-name="Layer 1" xmlns="http://www.w3.org/2000/svg" viewBox="0 0 1600 1600">
  <defs>
    <style>
      .cls-1 {
        fill: #1c3766;
      }

      .cls-2 {
        fill: #b2d3de;
      }
    </style>
  </defs>
  <rect class="cls-2" width="1600" height="1600" rx="50" ry="50"/>
  <g>
    <path class="cls-1" d="M228.8,817.49c-.4-.91-.1-1.55.9-1.91,11.38-4.19,20.31-10.79,26.8-19.81,6.48-9.02,9.73-19.54,9.73-31.57s-2.84-22.64-8.53-31.84c-5.69-9.2-13.67-16.35-23.95-21.45-10.28-5.1-22.21-7.65-35.78-7.65h-90.72c-1.4,0-2.5.37-3.29,1.09-.8.73-1.2,1.73-1.2,3.01v183.11c0,1.28.4,2.28,1.2,3.01.8.73,1.89,1.09,3.29,1.09h47.31c1.39,0,2.49-.36,3.29-1.09.8-.73,1.2-1.73,1.2-3.01v-68.05c0-.91.5-1.37,1.5-1.37h12.57c.8,0,1.39.37,1.8,1.09l32.93,69.42c.8,2.01,2.49,3.01,5.09,3.01h50.3c1.2,0,2.19-.27,2.99-.82.8-.55,1.2-1.27,1.2-2.19,0-.18-.2-.82-.6-1.91l-38.02-72.15ZM204.25,777.18c-4,3.19-9.18,4.78-15.57,4.78h-28.14c-1,0-1.5-.45-1.5-1.37v-31.98c0-.91.5-1.37,1.5-1.37h28.14c6.39,0,11.57,1.6,15.57,4.78,3.99,3.19,5.99,7.43,5.99,12.71s-2,9.25-5.99,12.43Z"/>
    <path class="cls-1" d="M421.55,703.25h-142.81c-1.4,0-2.5.37-3.29,1.09-.8.73-1.2,1.73-1.2,3.01v183.11c0,1.28.4,2.28,1.2,3.01.8.73,1.89,1.09,3.29,1.09h142.81c1.39,0,2.49-.36,3.29-1.09.8-.73,1.2-1.73,1.2-3.01v-35.8c0-1.27-.4-2.28-1.2-3.01-.8-.73-1.9-1.09-3.29-1.09h-89.52c-1,0-1.5-.45-1.5-1.37v-28.42c0-.91.5-1.37,1.5-1.37h55.39c1.39,0,2.49-.36,3.29-1.09.8-.73,1.2-1.73,1.2-3.01v-35.53c0-1.27-.4-2.28-1.2-3.01-.8-.73-1.9-1.09-3.29-1.09h-55.39c-1,0-1.5-.45-1.5-1.37v-25.69c0-.91.5-1.37,1.5-1.37h89.52c1.39,0,2.49-.36,3.29-1.09.8-.73,1.2-1.73,1.2-3.01v-35.8c0-1.27-.4-2.28-1.2-3.01-.8-.73-1.9-1.09-3.29-1.09Z"/>
    <path class="cls-1" d="M605.89,703.25h-50c-2.6,0-4.19,1.19-4.79,3.55l-29.04,115.33c-.2.73-.5,1.09-.9,1.09s-.7-.36-.9-1.09l-29.94-115.33c-.6-2.37-2.2-3.55-4.79-3.55h-51.2c-2.8,0-4.19,1.09-4.19,3.28,0,.55.1,1,.3,1.37l58.98,183.11c.2,1.09.8,1.96,1.8,2.6,1,.64,2.1.96,3.29.96h50.6c1.2,0,2.29-.32,3.29-.96,1-.64,1.6-1.5,1.8-2.6l59.58-183.11c.4-1.46.25-2.6-.45-3.42-.7-.82-1.85-1.23-3.44-1.23Z"/>
    <path class="cls-1" d="M742.26,817.49c-.4-.91-.1-1.55.9-1.91,11.38-4.19,20.31-10.79,26.8-19.81,6.48-9.02,9.73-19.54,9.73-31.57s-2.84-22.64-8.53-31.84c-5.69-9.2-13.67-16.35-23.95-21.45-10.28-5.1-22.21-7.65-35.78-7.65h-90.72c-1.4,0-2.5.37-3.29,1.09-.8.73-1.2,1.73-1.2,3.01v183.11c0,1.28.4,2.28,1.2,3.01.8.73,1.89,1.09,3.29,1.09h47.31c1.39,0,2.49-.36,3.29-1.09.8-.73,1.2-1.73,1.2-3.01v-68.05c0-.91.5-1.37,1.5-1.37h12.57c.8,0,1.39.37,1.8,1.09l32.93,69.42c.8,2.01,2.49,3.01,5.09,3.01h50.3c1.2,0,2.19-.27,2.99-.82.8-.55,1.2-1.27,1.2-2.19,0-.18-.2-.82-.6-1.91l-38.02-72.15ZM717.71,777.18c-4,3.19-9.18,4.78-15.57,4.78h-28.14c-1,0-1.5-.45-1.5-1.37v-31.98c0-.91.5-1.37,1.5-1.37h28.14c6.39,0,11.57,1.6,15.57,4.78,3.99,3.19,5.99,7.43,5.99,12.71s-2,9.25-5.99,12.43Z"/>
    <path class="cls-1" d="M935.01,703.25h-142.81c-1.4,0-2.5.37-3.29,1.09-.8.73-1.2,1.73-1.2,3.01v183.11c0,1.28.4,2.28,1.2,3.01.8.73,1.89,1.09,3.29,1.09h142.81c1.39,0,2.49-.36,3.29-1.09.8-.73,1.2-1.73,1.2-3.01v-35.8c0-1.27-.4-2.28-1.2-3.01-.8-.73-1.9-1.09-3.29-1.09h-89.52c-1,0-1.5-.45-1.5-1.37v-28.42c0-.91.5-1.37,1.5-1.37h55.39c1.39,0,2.49-.36,3.29-1.09.8-.73,1.2-1.73,1.2-3.01v-35.53c0-1.27-.4-2.28-1.2-3.01-.8-.73-1.9-1.09-3.29-1.09h-55.39c-1,0-1.5-.45-1.5-1.37v-25.69c0-.91.5-1.37,1.5-1.37h89.52c1.39,0,2.49-.36,3.29-1.09.8-.73,1.2-1.73,1.2-3.01v-35.8c0-1.27-.4-2.28-1.2-3.01-.8-.73-1.9-1.09-3.29-1.09Z"/>
    <path class="cls-1" d="M1083.96,796.72c-.8-.55-.8-1.09,0-1.64,15.17-7.83,22.75-20.4,22.75-37.71,0-19.49-6.44-33.38-19.31-41.68-12.87-8.29-32.09-12.43-57.63-12.43h-77.84c-1.4,0-2.5.37-3.29,1.09-.8.73-1.2,1.73-1.2,3.01v183.11c0,1.28.4,2.28,1.2,3.01.8.73,1.89,1.09,3.29,1.09h80.54c22.95,0,41.62-4.42,55.99-13.25,14.37-8.84,21.56-22.64,21.56-41.4,0-10.02-2.1-18.58-6.29-25.69-4.19-7.11-10.78-12.93-19.76-17.49ZM1003.72,748.62c0-.91.5-1.37,1.5-1.37h24.55c14.57,0,21.86,5.01,21.86,15.03s-7.29,15.03-21.86,15.03h-24.55c-1,0-1.5-.45-1.5-1.37v-27.33ZM1032.47,850.56h-27.25c-1,0-1.5-.45-1.5-1.37v-28.7c0-.91.5-1.37,1.5-1.37h27.54c13.97,0,20.96,5.1,20.96,15.3,0,10.75-7.09,16.12-21.26,16.12Z"/>
    <path class="cls-1" d="M1265.96,703.25h-142.81c-1.4,0-2.5.37-3.29,1.09-.8.73-1.2,1.73-1.2,3.01v183.11c0,1.28.4,2.28,1.2,3.01.8.73,1.89,1.09,3.29,1.09h142.81c1.39,0,2.49-.36,3.29-1.09.8-.73,1.2-1.73,1.2-3.01v-35.8c0-1.27-.4-2.28-1.2-3.01-.8-.73-1.9-1.09-3.29-1.09h-89.52c-1,0-1.5-.45-1.5-1.37v-28.42c0-.91.5-1.37,1.5-1.37h55.39c1.39,0,2.49-.36,3.29-1.09.8-.73,1.2-1.73,1.2-3.01v-35.53c0-1.27-.4-2.28-1.2-3.01-.8-.73-1.9-1.09-3.29-1.09h-55.39c-1,0-1.5-.45-1.5-1.37v-25.69c0-.91.5-1.37,1.5-1.37h89.52c1.39,0,2.49-.36,3.29-1.09.8-.73,1.2-1.73,1.2-3.01v-35.8c0-1.27-.4-2.28-1.2-3.01-.8-.73-1.9-1.09-3.29-1.09Z"/>
    <path class="cls-1" d="M1428.68,850.56h-92.51c-1,0-1.5-.45-1.5-1.37v-141.84c0-1.27-.4-2.28-1.2-3.01-.8-.73-1.9-1.09-3.29-1.09h-47.3c-1.4,0-2.5.37-3.29,1.09-.8.73-1.2,1.73-1.2,3.01v183.11c0,1.28.4,2.28,1.2,3.01.79.73,1.89,1.09,3.29,1.09h145.81c1.39,0,2.49-.36,3.29-1.09.8-.73,1.2-1.73,1.2-3.01v-35.8c0-1.27-.4-2.28-1.2-3.01-.8-.73-1.9-1.09-3.29-1.09Z"/>
    <path class="cls-1" d="M1489.31,852.47c-5.29-4.74-12.03-7.11-20.21-7.11s-14.92,2.37-20.21,7.11c-5.29,4.74-7.93,10.93-7.93,18.58s2.64,13.62,7.93,18.45c5.29,4.83,12.02,7.24,20.21,7.24s14.67-2.46,20.06-7.38c5.39-4.92,8.08-11.02,8.08-18.31,0-7.65-2.65-13.84-7.93-18.58Z"/>
  </g>
</svg>