<svg viewBox="0 -.02 1924.06 267.008" xmlns="http://www.w3.org/2000/svg"><g fill="#FAFAFA"><path d="M173.91 157.62c-.55-1.26-.14-2.13 1.24-2.64 15.7-5.78 28.02-14.89 36.97-27.34 8.95-12.44 13.43-26.96 13.43-43.55 0-16.59-3.92-31.23-11.77-43.93 -7.85-12.69-18.87-22.56-33.05-29.6C166.54 3.52 150.09 0 131.36 0H6.2C4.27 0 2.75.51 1.66 1.51 .55 2.52 0 3.9 0 5.66V258.3c0 1.76.55 3.15 1.65 4.15 1.1 1.01 2.61 1.51 4.54 1.51h65.27c1.92 0 3.44-.5 4.54-1.51 1.1-1 1.65-2.39 1.65-4.15v-93.89c0-1.25.68-1.89 2.07-1.89h17.35c1.1 0 1.92.51 2.48 1.51l45.44 95.78c1.1 2.77 3.44 4.15 7.02 4.15h69.4c1.65 0 3.03-.38 4.13-1.13 1.1-.75 1.65-1.76 1.65-3.02 0-.25-.28-1.13-.83-2.64l-52.46-99.55ZM140.04 102c-5.51 4.4-12.67 6.6-21.48 6.6H79.73c-1.38 0-2.07-.62-2.07-1.89V62.59c0-1.25.68-1.89 2.07-1.89h38.83c8.81 0 15.97 2.2 21.48 6.6 5.51 4.4 8.26 10.25 8.26 17.53 0 7.28-2.76 12.76-8.26 17.16Z"/><path d="M439.86 0H242.81c-1.93 0-3.45.51-4.54 1.51 -1.1 1.01-1.65 2.39-1.65 4.15V258.3c0 1.76.55 3.15 1.65 4.15 1.1 1.01 2.61 1.51 4.54 1.51h197.05c1.92 0 3.44-.5 4.54-1.51 1.1-1 1.65-2.39 1.65-4.15v-49.4c0-1.76-.56-3.14-1.65-4.15 -1.1-1-2.62-1.51-4.54-1.51H316.34c-1.38 0-2.07-.62-2.07-1.88v-39.22c0-1.25.68-1.89 2.07-1.89h76.42c1.92 0 3.44-.5 4.54-1.51 1.1-1 1.65-2.39 1.65-4.15v-49.02c0-1.76-.56-3.14-1.65-4.15 -1.1-1-2.62-1.51-4.54-1.51h-76.42c-1.38 0-2.07-.62-2.07-1.89V62.57c0-1.25.68-1.89 2.07-1.89h123.52c1.92 0 3.44-.5 4.54-1.51 1.1-1 1.65-2.39 1.65-4.15V5.66c0-1.76-.56-3.14-1.65-4.15 -1.1-1-2.62-1.51-4.54-1.51Z"/><path d="M694.21 0h-68.99c-3.58 0-5.78 1.64-6.61 4.9l-40.07 159.13c-.28 1.01-.69 1.51-1.24 1.51s-.97-.5-1.24-1.51L534.75 4.9c-.83-3.26-3.03-4.9-6.61-4.9H457.5c-3.86 0-5.78 1.51-5.78 4.52 0 .75.14 1.38.41 1.89l81.38 252.64c.27 1.51 1.1 2.71 2.48 3.58 1.38.88 2.89 1.32 4.54 1.32h69.81c1.65 0 3.16-.44 4.54-1.32 1.38-.88 2.2-2.07 2.48-3.58L699.58 6.41c.55-2.01.34-3.58-.62-4.71 -.97-1.13-2.55-1.7-4.75-1.7Z"/><path d="M882.37 157.62c-.55-1.26-.14-2.13 1.24-2.64 15.7-5.78 28.02-14.89 36.97-27.34 8.95-12.44 13.43-26.96 13.43-43.55 0-16.59-3.92-31.23-11.77-43.93 -7.85-12.69-18.87-22.56-33.05-29.6C875 3.52 858.55 0 839.82 0H714.65c-1.93 0-3.45.51-4.54 1.51 -1.1 1.01-1.65 2.39-1.65 4.15V258.3c0 1.76.55 3.15 1.65 4.15 1.1 1.01 2.61 1.51 4.54 1.51h65.27c1.92 0 3.44-.5 4.54-1.51 1.1-1 1.65-2.39 1.65-4.15v-93.89c0-1.25.68-1.89 2.07-1.89h17.35c1.1 0 1.92.51 2.48 1.51l45.44 95.78c1.1 2.77 3.44 4.15 7.02 4.15h69.4c1.65 0 3.03-.38 4.13-1.13 1.1-.75 1.65-1.76 1.65-3.02 0-.25-.28-1.13-.83-2.64l-52.46-99.55ZM848.49 102c-5.51 4.4-12.67 6.6-21.48 6.6h-38.83c-1.38 0-2.07-.62-2.07-1.89V62.59c0-1.25.68-1.89 2.07-1.89h38.83c8.81 0 15.97 2.2 21.48 6.6 5.51 4.4 8.26 10.25 8.26 17.53 0 7.28-2.76 12.76-8.26 17.16Z"/><path d="M1148.32 0H951.27c-1.93 0-3.45.51-4.54 1.51 -1.1 1.01-1.65 2.39-1.65 4.15V258.3c0 1.76.55 3.15 1.65 4.15 1.1 1.01 2.61 1.51 4.54 1.51h197.05c1.92 0 3.44-.5 4.54-1.51 1.1-1 1.65-2.39 1.65-4.15v-49.4c0-1.76-.56-3.14-1.65-4.15 -1.1-1-2.62-1.51-4.54-1.51H1024.8c-1.38 0-2.07-.62-2.07-1.88v-39.22c0-1.25.68-1.89 2.07-1.89h76.42c1.92 0 3.44-.5 4.54-1.51 1.1-1 1.65-2.39 1.65-4.15v-49.02c0-1.76-.56-3.14-1.65-4.15 -1.1-1-2.62-1.51-4.54-1.51h-76.42c-1.38 0-2.07-.62-2.07-1.89V62.57c0-1.25.68-1.89 2.07-1.89h123.52c1.92 0 3.44-.5 4.54-1.51 1.1-1 1.65-2.39 1.65-4.15V5.66c0-1.76-.56-3.14-1.65-4.15 -1.1-1-2.62-1.51-4.54-1.51Z"/><path d="M1353.83 128.96c-1.1-.75-1.1-1.51 0-2.26 20.93-10.81 31.4-28.15 31.4-52.04 0-26.9-8.88-46.06-26.64-57.51 -17.76-11.44-44.27-17.16-79.52-17.16h-107.41c-1.93 0-3.45.51-4.54 1.51 -1.1 1.01-1.65 2.39-1.65 4.15v252.64c0 1.76.55 3.15 1.65 4.15 1.1 1.01 2.61 1.51 4.54 1.51h111.12c31.67 0 57.42-6.09 77.25-18.29 19.83-12.19 29.74-31.23 29.74-57.13 0-13.82-2.89-25.64-8.68-35.45 -5.79-9.81-14.87-17.85-27.26-24.13Zm-110.71-66.37c0-1.25.68-1.89 2.07-1.89h33.87c20.1 0 30.16 6.92 30.16 20.74 0 13.82-10.06 20.74-30.16 20.74h-33.87c-1.38 0-2.07-.62-2.07-1.89V62.58Zm39.66 140.66h-37.59c-1.38 0-2.07-.62-2.07-1.88v-39.59c0-1.25.68-1.89 2.07-1.89h38.01c19.27 0 28.92 7.04 28.92 21.12 0 14.83-9.78 22.25-29.33 22.25Z"/><path d="M1604.95 0H1407.9c-1.93 0-3.45.51-4.54 1.51 -1.1 1.01-1.65 2.39-1.65 4.15V258.3c0 1.76.55 3.15 1.65 4.15 1.1 1.01 2.61 1.51 4.54 1.51h197.05c1.92 0 3.44-.5 4.54-1.51 1.1-1 1.65-2.39 1.65-4.15v-49.4c0-1.76-.55-3.14-1.65-4.15 -1.1-1-2.62-1.51-4.54-1.51h-123.52c-1.38 0-2.07-.62-2.07-1.88v-39.22c0-1.25.68-1.89 2.07-1.89h76.42c1.92 0 3.44-.5 4.54-1.51 1.1-1 1.65-2.39 1.65-4.15v-49.02c0-1.76-.55-3.14-1.65-4.15 -1.1-1-2.62-1.51-4.54-1.51h-76.42c-1.38 0-2.07-.62-2.07-1.89V62.57c0-1.25.68-1.89 2.07-1.89h123.52c1.92 0 3.44-.5 4.54-1.51 1.1-1 1.65-2.39 1.65-4.15V5.66c0-1.76-.55-3.14-1.65-4.15 -1.1-1-2.62-1.51-4.54-1.51Z"/><path d="M1829.47 203.25h-127.65c-1.38 0-2.07-.62-2.07-1.88V5.66c0-1.76-.55-3.14-1.65-4.15 -1.1-1-2.62-1.51-4.54-1.51h-65.27c-1.93 0-3.45.51-4.54 1.51 -1.1 1.01-1.65 2.39-1.65 4.15V258.3c0 1.76.55 3.15 1.65 4.15 1.1 1.01 2.61 1.51 4.54 1.51h201.18c1.92 0 3.44-.5 4.54-1.51 1.1-1 1.65-2.39 1.65-4.15v-49.4c0-1.76-.55-3.14-1.65-4.15 -1.1-1-2.62-1.51-4.54-1.51Z"/><path d="M1913.11 205.89c-7.3-6.53-16.59-9.8-27.88-9.8s-20.59 3.27-27.88 9.8c-7.3 6.54-10.95 15.08-10.95 25.64s3.65 18.79 10.95 25.45c7.29 6.66 16.59 9.99 27.88 9.99s20.24-3.39 27.68-10.18c7.44-6.79 11.15-15.21 11.15-25.26 0-10.56-3.65-19.1-10.95-25.64Z"/></g></svg>